<svg width="49" height="32" viewBox="0 0 49 32" fill="none" xmlns="http://www.w3.org/2000/svg">
<path d="M48.7096 11.4829L36.9487 21.6148C36.8596 21.6939 36.753 21.7569 36.6352 21.7998C36.5173 21.8428 36.3906 21.865 36.2627 21.865C36.1347 21.865 36.008 21.8428 35.8902 21.7998C35.7723 21.7569 35.6657 21.6939 35.5766 21.6148C35.4847 21.538 35.4117 21.4462 35.3618 21.3446C35.3119 21.2431 35.2862 21.134 35.2862 21.0237C35.2862 20.9135 35.3119 20.8044 35.3618 20.7028C35.4117 20.6013 35.4847 20.5095 35.5766 20.4327L45.6469 11.7361H24.5018C18.5254 11.7417 12.7956 13.7895 8.56961 17.4302C4.34363 21.0708 1.96663 26.007 1.96014 31.1557C1.96014 31.3796 1.85689 31.5944 1.67309 31.7527C1.48929 31.911 1.24 32 0.980072 32C0.720141 32 0.470856 31.911 0.287057 31.7527C0.103258 31.5944 0 31.3796 0 31.1557C0.0129498 25.5609 2.59854 20.1984 7.19072 16.2423C11.7829 12.2861 18.0075 10.0586 24.5018 10.0475H45.6469L35.5766 1.35092C35.4351 1.18833 35.3664 0.987205 35.3831 0.784474C35.3998 0.581743 35.5009 0.391012 35.6677 0.247298C35.8345 0.103584 36.0559 0.0165329 36.2912 0.00212527C36.5265 -0.0122824 36.76 0.046921 36.9487 0.168866L48.7096 10.3008C48.8015 10.3775 48.8745 10.4694 48.9244 10.5709C48.9743 10.6724 49 10.7816 49 10.8918C49 11.0021 48.9743 11.1112 48.9244 11.2127C48.8745 11.3142 48.8015 11.4061 48.7096 11.4829Z" fill="#9A7555" fill-opacity="0.5"/>
</svg>
