<svg width="36" height="35" viewBox="0 0 36 35" fill="none" xmlns="http://www.w3.org/2000/svg">
<path fill-rule="evenodd" clip-rule="evenodd" d="M36 6.71989C36 3.01108 32.9697 0 29.2389 0H6.7611C3.03032 0 0 3.01108 0 6.71989V28.2801C0 31.9879 3.03032 35 6.76113 35H29.2389C32.9697 35 36 31.9879 36 28.2801L36 6.71989Z" fill="#0C3B7C"/>
<path fill-rule="evenodd" clip-rule="evenodd" d="M0.0012207 21.7441H17.981V35.0004H0.00123388L0.0012207 21.7441Z" fill="#0C3B7C"/>
<path d="M16.3612 23.1673L13.4616 23.1645V19.7179C13.4616 18.9815 13.749 18.5982 14.3829 18.5106H16.3612C17.772 18.5106 18.6846 19.3949 18.6846 20.8261C18.6846 22.296 17.7951 23.1659 16.3612 23.1673H16.3612ZM13.4616 13.8712V12.964C13.4616 12.1701 13.7995 11.7926 14.5403 11.7438H16.0247C17.2969 11.7438 18.0593 12.5003 18.0593 13.7678C18.0593 14.7325 17.5366 15.8593 16.0709 15.8593H13.4616V13.8712ZM20.0636 17.3106L19.5394 17.0178L19.9972 16.6287C20.53 16.1737 21.4224 15.1502 21.4224 13.3846C21.4224 10.6801 19.3127 8.93601 16.0478 8.93601H12.3223V8.93457H11.8978C10.9303 8.97046 10.1549 9.7528 10.1448 10.7203V26.0656H16.1215C19.7502 26.0656 22.0924 24.1018 22.0924 21.0601C22.0924 19.4222 21.3358 18.0226 20.0636 17.3106Z" fill="white"/>
<path d="M23.6489 23.9458C23.6489 22.7736 24.6 21.8252 25.7718 21.8252C26.9465 21.8252 27.902 22.7736 27.902 23.9458C27.902 25.1166 26.9465 26.0664 25.7717 26.0664C24.6 26.0664 23.6489 25.1166 23.6489 23.9458" fill="#00BAFC"/>
</svg>
