<svg width="40" height="54" viewBox="0 0 40 54" fill="none" xmlns="http://www.w3.org/2000/svg">
<path d="M20 0C14.6975 0.00638076 9.61393 2.24359 5.86451 6.22081C2.11508 10.198 0.0060153 15.5905 0 21.2151C0 39.3685 18.1818 53.086 18.9545 53.6646C19.2642 53.8833 19.628 54 20 54C20.372 54 20.7358 53.8833 21.0455 53.6646C21.8182 53.086 40 39.3685 40 21.2151C39.994 15.5905 37.8849 10.198 34.1355 6.22081C30.3861 2.24359 25.3025 0.00638076 20 0ZM20 13.5005C21.4384 13.5005 22.8445 13.953 24.0405 14.8007C25.2365 15.6484 26.1687 16.8532 26.7191 18.2629C27.2696 19.6725 27.4136 21.2237 27.133 22.7201C26.8524 24.2166 26.1597 25.5912 25.1426 26.6701C24.1255 27.7491 22.8296 28.4838 21.4188 28.7815C20.0081 29.0791 18.5458 28.9264 17.2169 28.3425C15.8879 27.7586 14.7521 26.7698 13.9529 25.5011C13.1538 24.2324 12.7273 22.7409 12.7273 21.2151C12.7273 19.1691 13.4935 17.2068 14.8574 15.7601C16.2213 14.3133 18.0712 13.5005 20 13.5005Z" fill="#927B67"/>
</svg>
