<svg width="175" height="29" viewBox="0 0 175 29" fill="none" xmlns="http://www.w3.org/2000/svg">
<path d="M17.6953 20.8633C17.6953 22.3867 17.3262 23.7109 16.5879 24.8359C15.8496 25.9609 14.7715 26.8281 13.3535 27.4375C11.9473 28.0469 10.2363 28.3516 8.2207 28.3516C7.33008 28.3516 6.45703 28.293 5.60156 28.1758C4.75781 28.0586 3.94336 27.8887 3.1582 27.666C2.38477 27.4316 1.64648 27.1445 0.943359 26.8047V21.7422C2.16211 22.2812 3.42773 22.7676 4.74023 23.2012C6.05273 23.6348 7.35352 23.8516 8.64258 23.8516C9.5332 23.8516 10.248 23.7344 10.7871 23.5C11.3379 23.2656 11.7363 22.9434 11.9824 22.5332C12.2285 22.123 12.3516 21.6543 12.3516 21.127C12.3516 20.4824 12.1348 19.9316 11.7012 19.4746C11.2676 19.0176 10.6699 18.5898 9.9082 18.1914C9.1582 17.793 8.30859 17.3652 7.35938 16.9082C6.76172 16.627 6.11133 16.2871 5.4082 15.8887C4.70508 15.4785 4.03711 14.9805 3.4043 14.3945C2.77148 13.8086 2.25 13.0996 1.83984 12.2676C1.44141 11.4238 1.24219 10.416 1.24219 9.24414C1.24219 7.70898 1.59375 6.39648 2.29688 5.30664C3 4.2168 4.00195 3.38477 5.30273 2.81055C6.61523 2.22461 8.16211 1.93164 9.94336 1.93164C11.2793 1.93164 12.5508 2.08984 13.7578 2.40625C14.9766 2.71094 16.248 3.15625 17.5723 3.74219L15.8145 7.97852C14.6309 7.49805 13.5703 7.12891 12.6328 6.87109C11.6953 6.60156 10.7402 6.4668 9.76758 6.4668C9.08789 6.4668 8.50781 6.57812 8.02734 6.80078C7.54688 7.01172 7.18359 7.31641 6.9375 7.71484C6.69141 8.10156 6.56836 8.55273 6.56836 9.06836C6.56836 9.67773 6.74414 10.1934 7.0957 10.6152C7.45898 11.0254 7.99805 11.4238 8.71289 11.8105C9.43945 12.1973 10.3418 12.6484 11.4199 13.1641C12.7324 13.7852 13.8516 14.4355 14.7773 15.1152C15.7148 15.7832 16.4355 16.5742 16.9395 17.4883C17.4434 18.3906 17.6953 19.5156 17.6953 20.8633ZM35.6074 28H20.0859V24.8359L29.1914 12.4434H20.6309V8.34766H35.291V11.8281L26.4316 23.9043H35.6074V28ZM47.5605 7.94336C50.1973 7.94336 52.2188 8.51758 53.625 9.66602C55.0312 10.8145 55.7344 12.5605 55.7344 14.9043V28H51.9902L50.9531 25.3281H50.8125C50.25 26.0312 49.6758 26.6055 49.0898 27.0508C48.5039 27.4961 47.8301 27.8242 47.0684 28.0352C46.3066 28.2461 45.3809 28.3516 44.291 28.3516C43.1309 28.3516 42.0879 28.1289 41.1621 27.6836C40.248 27.2383 39.5273 26.5586 39 25.6445C38.4727 24.7188 38.209 23.5469 38.209 22.1289C38.209 20.043 38.9414 18.5078 40.4062 17.5234C41.8711 16.5273 44.0684 15.9766 46.998 15.8711L50.4082 15.7656V14.9043C50.4082 13.873 50.1387 13.1172 49.5996 12.6367C49.0605 12.1562 48.3105 11.916 47.3496 11.916C46.4004 11.916 45.4688 12.0508 44.5547 12.3203C43.6406 12.5898 42.7266 12.9297 41.8125 13.3398L40.0371 9.71875C41.0801 9.16797 42.2461 8.73438 43.5352 8.41797C44.8359 8.10156 46.1777 7.94336 47.5605 7.94336ZM50.4082 18.8945L48.334 18.9648C46.5996 19.0117 45.3926 19.3223 44.7129 19.8965C44.0449 20.4707 43.7109 21.2266 43.7109 22.1641C43.7109 22.9844 43.9512 23.5703 44.4316 23.9219C44.9121 24.2617 45.5391 24.4316 46.3125 24.4316C47.4609 24.4316 48.4277 24.0918 49.2129 23.4121C50.0098 22.7324 50.4082 21.7656 50.4082 20.5117V18.8945ZM54.4688 0.419922V0.789062C54.1289 1.11719 53.6836 1.52148 53.1328 2.00195C52.582 2.48242 51.9902 2.98633 51.3574 3.51367C50.7246 4.0293 50.1035 4.52734 49.4941 5.00781C48.8848 5.47656 48.3516 5.86914 47.8945 6.18555H44.3262V5.71094C44.7129 5.26563 45.1582 4.73828 45.6621 4.12891C46.1777 3.50781 46.6875 2.86914 47.1914 2.21289C47.6953 1.55664 48.1172 0.958984 48.457 0.419922H54.4688ZM66.6328 28H61.2715V0.648438H66.6328V28ZM77.6367 28H72.2754V0.648438H77.6367V28ZM91.3301 7.94336C93.9668 7.94336 95.9883 8.51758 97.3945 9.66602C98.8008 10.8145 99.5039 12.5605 99.5039 14.9043V28H95.7598L94.7227 25.3281H94.582C94.0195 26.0312 93.4453 26.6055 92.8594 27.0508C92.2734 27.4961 91.5996 27.8242 90.8379 28.0352C90.0762 28.2461 89.1504 28.3516 88.0605 28.3516C86.9004 28.3516 85.8574 28.1289 84.9316 27.6836C84.0176 27.2383 83.2969 26.5586 82.7695 25.6445C82.2422 24.7188 81.9785 23.5469 81.9785 22.1289C81.9785 20.043 82.7109 18.5078 84.1758 17.5234C85.6406 16.5273 87.8379 15.9766 90.7676 15.8711L94.1777 15.7656V14.9043C94.1777 13.873 93.9082 13.1172 93.3691 12.6367C92.8301 12.1562 92.0801 11.916 91.1191 11.916C90.1699 11.916 89.2383 12.0508 88.3242 12.3203C87.4102 12.5898 86.4961 12.9297 85.582 13.3398L83.8066 9.71875C84.8496 9.16797 86.0156 8.73438 87.3047 8.41797C88.6055 8.10156 89.9473 7.94336 91.3301 7.94336ZM94.1777 18.8945L92.1035 18.9648C90.3691 19.0117 89.1621 19.3223 88.4824 19.8965C87.8145 20.4707 87.4805 21.2266 87.4805 22.1641C87.4805 22.9844 87.7207 23.5703 88.2012 23.9219C88.6816 24.2617 89.3086 24.4316 90.082 24.4316C91.2305 24.4316 92.1973 24.0918 92.9824 23.4121C93.7793 22.7324 94.1777 21.7656 94.1777 20.5117V18.8945ZM98.2383 0.419922V0.789062C97.8984 1.11719 97.4531 1.52148 96.9023 2.00195C96.3516 2.48242 95.7598 2.98633 95.127 3.51367C94.4941 4.0293 93.873 4.52734 93.2637 5.00781C92.6543 5.47656 92.1211 5.86914 91.6641 6.18555H88.0957V5.71094C88.4824 5.26563 88.9277 4.73828 89.4316 4.12891C89.9473 3.50781 90.457 2.86914 90.9609 2.21289C91.4648 1.55664 91.8867 0.958984 92.2266 0.419922H98.2383ZM118.752 22.1641C118.752 23.5 118.436 24.6309 117.803 25.5566C117.182 26.4707 116.25 27.168 115.008 27.6484C113.766 28.1172 112.219 28.3516 110.367 28.3516C108.996 28.3516 107.818 28.2637 106.834 28.0879C105.861 27.9121 104.877 27.6191 103.881 27.209V22.7793C104.947 23.2598 106.09 23.6582 107.309 23.9746C108.539 24.2793 109.617 24.4316 110.543 24.4316C111.586 24.4316 112.33 24.2793 112.775 23.9746C113.232 23.6582 113.461 23.248 113.461 22.7441C113.461 22.416 113.367 22.123 113.18 21.8652C113.004 21.5957 112.617 21.2969 112.02 20.9688C111.422 20.6289 110.484 20.1895 109.207 19.6504C107.977 19.1348 106.963 18.6133 106.166 18.0859C105.381 17.5586 104.795 16.9375 104.408 16.2227C104.033 15.4961 103.846 14.5762 103.846 13.4629C103.846 11.6465 104.549 10.2812 105.955 9.36719C107.373 8.44141 109.266 7.97852 111.633 7.97852C112.852 7.97852 114.012 8.10156 115.113 8.34766C116.227 8.59375 117.369 8.98633 118.541 9.52539L116.924 13.3926C115.951 12.9707 115.031 12.625 114.164 12.3555C113.309 12.0859 112.436 11.9512 111.545 11.9512C110.76 11.9512 110.168 12.0566 109.77 12.2676C109.371 12.4785 109.172 12.8008 109.172 13.2344C109.172 13.5508 109.271 13.832 109.471 14.0781C109.682 14.3242 110.08 14.5996 110.666 14.9043C111.264 15.1973 112.137 15.5781 113.285 16.0469C114.398 16.5039 115.365 16.9844 116.186 17.4883C117.006 17.9805 117.639 18.5957 118.084 19.334C118.529 20.0605 118.752 21.0039 118.752 22.1641ZM122.18 25.4863C122.18 24.3848 122.479 23.6113 123.076 23.166C123.686 22.7207 124.418 22.498 125.273 22.498C126.105 22.498 126.82 22.7207 127.418 23.166C128.027 23.6113 128.332 24.3848 128.332 25.4863C128.332 26.541 128.027 27.3027 127.418 27.7715C126.82 28.2402 126.105 28.4746 125.273 28.4746C124.418 28.4746 123.686 28.2402 123.076 27.7715C122.479 27.3027 122.18 26.541 122.18 25.4863ZM138.562 0.648438V6.2207C138.562 7.19336 138.527 8.11914 138.457 8.99805C138.398 9.87695 138.352 10.498 138.316 10.8613H138.598C139.02 10.1816 139.518 9.63086 140.092 9.20898C140.678 8.78711 141.322 8.47656 142.025 8.27734C142.729 8.07812 143.484 7.97852 144.293 7.97852C145.711 7.97852 146.947 8.23047 148.002 8.73438C149.057 9.22656 149.877 10.0059 150.463 11.0723C151.049 12.127 151.342 13.498 151.342 15.1855V28H145.98V16.5215C145.98 15.1152 145.723 14.0547 145.207 13.3398C144.691 12.625 143.895 12.2676 142.816 12.2676C141.738 12.2676 140.889 12.5195 140.268 13.0234C139.646 13.5156 139.207 14.248 138.949 15.2207C138.691 16.1816 138.562 17.3594 138.562 18.7539V28H133.201V0.648438H138.562ZM174.896 8.34766V28H170.783L170.062 25.4863H169.781C169.359 26.1543 168.832 26.6992 168.199 27.1211C167.566 27.543 166.869 27.8535 166.107 28.0527C165.346 28.252 164.555 28.3516 163.734 28.3516C162.328 28.3516 161.104 28.1055 160.061 27.6133C159.018 27.1094 158.203 26.3301 157.617 25.2754C157.043 24.2207 156.756 22.8496 156.756 21.1621V8.34766H162.117V19.8262C162.117 21.2324 162.369 22.293 162.873 23.0078C163.377 23.7227 164.18 24.0801 165.281 24.0801C166.371 24.0801 167.227 23.834 167.848 23.3418C168.469 22.8379 168.902 22.1055 169.148 21.1445C169.406 20.1719 169.535 18.9883 169.535 17.5938V8.34766H174.896Z" fill="#D20000"/>
</svg>
