<svg width="34" height="29" viewBox="0 0 34 29" fill="none" xmlns="http://www.w3.org/2000/svg">
<path d="M28.343 2.16379C28.6457 2.06282 28.8924 1.85554 29.0287 1.58753C29.165 1.31952 29.1799 1.01274 29.07 0.734688C28.96 0.456634 28.7344 0.230077 28.4426 0.104857C28.1508 -0.0203622 27.8168 -0.0339868 27.5141 0.0669805L7.28575 6.82288V1.11539C7.28575 0.819583 7.15782 0.535896 6.9301 0.326732C6.70238 0.117568 6.39352 6.08393e-05 6.07147 6.08393e-05H3.64291C3.32086 6.08393e-05 3.01201 0.117568 2.78428 0.326732C2.55656 0.535896 2.42863 0.819583 2.42863 1.11539V8.44679L0.799873 8.98958C0.497148 9.09055 0.25049 9.29784 0.114161 9.56585C-0.0221688 9.83386 -0.0370024 10.1406 0.0729231 10.4187C0.182849 10.6967 0.408529 10.9233 0.700316 11.0485C0.992104 11.1737 1.3261 11.1874 1.62882 11.0864L28.343 2.16379Z" fill="#927B67"/>
<path fill-rule="evenodd" clip-rule="evenodd" d="M2.45932 13.1833L26.7142 5.08154V10.1719L33.2001 12.3371C33.5028 12.4381 33.7494 12.6454 33.8858 12.9134C34.0221 13.1814 34.0369 13.4882 33.927 13.7662C33.8171 14.0443 33.5914 14.2708 33.2996 14.396C33.0078 14.5213 32.6738 14.5349 32.3711 14.4339L31.5713 14.1662V26.7694H32.7856C33.1076 26.7694 33.4165 26.8869 33.6442 27.0961C33.8719 27.3052 33.9999 27.5889 33.9999 27.8847C33.9999 28.1805 33.8719 28.4642 33.6442 28.6734C33.4165 28.8826 33.1076 29.0001 32.7856 29.0001H1.21428C0.892234 29.0001 0.583377 28.8826 0.355655 28.6734C0.127933 28.4642 0 28.1805 0 27.8847C0 27.5889 0.127933 27.3052 0.355655 27.0961C0.583377 26.8869 0.892234 26.7694 1.21428 26.7694H2.42856V13.1937L2.45932 13.1848V13.1833ZM26.7142 26.7679V12.5438L29.1427 13.3543V26.7679H26.7142ZM12.1428 17.8453C11.8208 17.8453 11.5119 17.9628 11.2842 18.172C11.0565 18.3812 10.9285 18.6648 10.9285 18.9606V25.6526C10.9285 26.2683 11.4725 26.7679 12.1428 26.7679H16.9999C17.322 26.7679 17.6308 26.6504 17.8586 26.4413C18.0863 26.2321 18.2142 25.9484 18.2142 25.6526V18.9606C18.2142 18.6648 18.0863 18.3812 17.8586 18.172C17.6308 17.9628 17.322 17.8453 16.9999 17.8453H12.1428Z" fill="#927B67"/>
</svg>
