<svg width="16" height="15" viewBox="0 0 16 15" fill="none" xmlns="http://www.w3.org/2000/svg">
<path d="M3 11.25C3.17333 11.25 3.31653 11.197 3.4296 11.091C3.5432 10.9845 3.6 10.85 3.6 10.6875V10.125H12.4V10.6875C12.4 10.85 12.4565 10.9845 12.5696 11.091C12.6832 11.197 12.8267 11.25 13 11.25C13.1733 11.25 13.3168 11.197 13.4304 11.091C13.5435 10.9845 13.6 10.85 13.6 10.6875V8.3625C13.6 8.1 13.5467 7.853 13.44 7.6215C13.3333 7.3905 13.1867 7.1875 13 7.0125V5.25C13 4.8375 12.8435 4.48425 12.5304 4.19025C12.2168 3.89675 11.84 3.75 11.4 3.75H8.8C8.65333 3.75 8.51333 3.76875 8.38 3.80625C8.24667 3.84375 8.12 3.9 8 3.975C7.88 3.9 7.75333 3.84375 7.62 3.80625C7.48667 3.76875 7.34667 3.75 7.2 3.75H4.6C4.16 3.75 3.78347 3.89675 3.4704 4.19025C3.1568 4.48425 3 4.8375 3 5.25V7.0125C2.81333 7.1875 2.66667 7.3905 2.56 7.6215C2.45333 7.853 2.4 8.1 2.4 8.3625V10.6875C2.4 10.85 2.4568 10.9845 2.5704 11.091C2.68347 11.197 2.82667 11.25 3 11.25ZM8.6 6.375V4.875H11.8V6.375H8.6ZM4.2 6.375V4.875H7.4V6.375H4.2ZM3.6 9V8.25C3.6 8.0375 3.67653 7.85925 3.8296 7.71525C3.9832 7.57175 4.17333 7.5 4.4 7.5H11.6C11.8267 7.5 12.0165 7.57175 12.1696 7.71525C12.3232 7.85925 12.4 8.0375 12.4 8.25V9H3.6ZM1.6 15C1.16 15 0.783467 14.8533 0.4704 14.5597C0.1568 14.2657 0 13.9125 0 13.5V1.5C0 1.0875 0.1568 0.73425 0.4704 0.44025C0.783467 0.14675 1.16 0 1.6 0H14.4C14.84 0 15.2168 0.14675 15.5304 0.44025C15.8435 0.73425 16 1.0875 16 1.5V13.5C16 13.9125 15.8435 14.2657 15.5304 14.5597C15.2168 14.8533 14.84 15 14.4 15H1.6Z" fill="#927B67"/>
</svg>
