<svg width="30" height="30" viewBox="0 0 30 30" fill="none" xmlns="http://www.w3.org/2000/svg">
<rect width="30" height="30" rx="5" fill="#515151"/>
<path d="M23.1818 20.5556H6.81818V7.22222H23.1818M23.1818 5H6.81818C6.33597 5 5.87351 5.23413 5.53253 5.65087C5.19156 6.06762 5 6.63285 5 7.22222V20.5556C5 21.1449 5.19156 21.7102 5.53253 22.1269C5.87351 22.5437 6.33597 22.7778 6.81818 22.7778H11.3636V25H18.6364V22.7778H23.1818C23.664 22.7778 24.1265 22.5437 24.4675 22.1269C24.8084 21.7102 25 21.1449 25 20.5556V7.22222C25 6.63285 24.8084 6.06762 24.4675 5.65087C24.1265 5.23413 23.664 5 23.1818 5Z" fill="white"/>
</svg>
