<svg width="30" height="30" viewBox="0 0 30 30" fill="none" xmlns="http://www.w3.org/2000/svg">
<rect width="30" height="30" rx="5" fill="#515151"/>
<path d="M22.5 9V7H25V5H7.5C6.125 5 5 5.9 5 7V23C5 24.1 6.125 25 7.5 25H25V23H19.9625C20.7481 22.5393 21.3871 21.9371 21.828 21.2423C22.2688 20.5474 22.499 19.7793 22.5 19V14H10V19C10 20.64 11.0125 22.09 12.5375 23H7.5V7H10V9C10 9.55 10.5625 10 11.25 10H21.25C21.9375 10 22.5 9.55 22.5 9ZM16.25 11C16.9375 11 17.5 11.45 17.5 12C17.5 12.55 16.9375 13 16.25 13C15.5625 13 15 12.55 15 12C15 11.45 15.5625 11 16.25 11Z" fill="white"/>
</svg>
