<svg width="31" height="31" viewBox="0 0 31 31" fill="none" xmlns="http://www.w3.org/2000/svg">
<rect x="0.5" y="0.5" width="30" height="30" rx="5" fill="#515151"/>
<path d="M15.5 23.5C11.1 23.5 7.5 19.9 7.5 15.5C7.5 11.1 11.1 7.5 15.5 7.5C19.9 7.5 23.5 11.1 23.5 15.5C23.5 19.9 19.9 23.5 15.5 23.5ZM15.5 5.5C10 5.5 5.5 10 5.5 15.5C5.5 21 10 25.5 15.5 25.5C21 25.5 25.5 21 25.5 15.5C25.5 10 21 5.5 15.5 5.5ZM14.5 17.5H16.5V20.5H19.5V15.5H21.5L15.5 10.5L9.5 15.5H11.5V20.5H14.5V17.5Z" fill="white"/>
</svg>
