<svg width="30" height="30" viewBox="0 0 30 30" fill="none" xmlns="http://www.w3.org/2000/svg">
<rect width="30" height="30" rx="5" fill="#515151"/>
<path d="M24.6148 11.4711C24.4135 11.4809 24.2232 11.5781 24.0838 11.7424C23.9443 11.9068 23.8664 12.1256 23.8663 12.3532C23.8662 12.5809 23.9439 12.7998 24.0832 12.9643C24.2226 13.1288 24.4127 13.2262 24.6141 13.2362H24.6156C24.8169 13.2264 25.0072 13.1292 25.1466 12.9648C25.2861 12.8005 25.364 12.5817 25.3641 12.354C25.3642 12.1264 25.2864 11.9075 25.1471 11.743C25.0078 11.5785 24.8176 11.4811 24.6163 11.4711H24.6148ZM23.8335 17.648V17.6722C23.8335 17.7881 23.8537 17.9029 23.8929 18.0099C23.9322 18.117 23.9898 18.2143 24.0623 18.2962C24.1349 18.3782 24.221 18.4432 24.3158 18.4876C24.4106 18.5319 24.5122 18.5547 24.6148 18.5547C24.7174 18.5547 24.819 18.5319 24.9138 18.4876C25.0086 18.4432 25.0948 18.3782 25.1673 18.2962C25.2399 18.2143 25.2974 18.117 25.3367 18.0099C25.376 17.9029 25.3962 17.7881 25.3962 17.6722V17.6464V17.6472V14.6812C25.3962 14.5653 25.376 14.4506 25.3367 14.3435C25.2974 14.2364 25.2399 14.1391 25.1673 14.0572C25.0948 13.9752 25.0086 13.9102 24.9138 13.8659C24.819 13.8215 24.7174 13.7987 24.6148 13.7987C24.5122 13.7987 24.4106 13.8215 24.3158 13.8659C24.221 13.9102 24.1349 13.9752 24.0623 14.0572C23.9898 14.1391 23.9322 14.2364 23.8929 14.3435C23.8537 14.4506 23.8335 14.5653 23.8335 14.6812V14.7071V14.7054V17.648ZM22.011 11.4711C22.2124 11.4809 22.4026 11.5781 22.5421 11.7424C22.6815 11.9068 22.7594 12.1256 22.7595 12.3532C22.7596 12.5809 22.6819 12.7998 22.5426 12.9643C22.4033 13.1288 22.2131 13.2262 22.0117 13.2362H19.146V14.4129H20.9684C21.1698 14.4227 21.3601 14.5199 21.4995 14.6842C21.639 14.8486 21.7169 15.0674 21.717 15.295C21.7171 15.5227 21.6393 15.7416 21.5 15.9061C21.3607 16.0706 21.1705 16.168 20.9692 16.178H19.1453V17.673C19.1453 17.9071 19.0629 18.1316 18.9164 18.2971C18.7699 18.4626 18.5711 18.5556 18.3639 18.5556C18.1567 18.5556 17.9579 18.4626 17.8114 18.2971C17.6649 18.1316 17.5825 17.9071 17.5825 17.673V17.6472V17.6489V12.3495C17.5825 11.8645 17.9308 11.4711 18.3602 11.4711H18.3639H22.011ZM28 13.2353V16.7647C28 18.0128 27.561 19.2098 26.7796 20.0923C25.9983 20.9749 24.9385 21.4707 23.8335 21.4707H22.2707C20.629 23.6366 18.2053 25 15.5004 25C12.7955 25 10.3717 23.6366 8.7396 21.484L8.72927 21.4707H7.16654C6.06151 21.4707 5.00173 20.9749 4.22035 20.0923C3.43897 19.2098 3 18.0128 3 16.7647V13.2353C3 11.9872 3.43897 10.7902 4.22035 9.90768C5.00173 9.02513 6.06151 8.52931 7.16654 8.52931H8.72927C10.371 6.36339 12.7947 5 15.4996 5C18.2045 5 20.6283 6.36339 22.2604 8.51598L22.2707 8.52931H23.8335C24.3806 8.52931 24.9224 8.65104 25.4279 8.88754C25.9334 9.12404 26.3927 9.47068 26.7796 9.90768C27.1665 10.3447 27.4735 10.8635 27.6828 11.4344C27.8922 12.0054 28 12.6173 28 13.2353ZM13.6772 11.4711C13.4758 11.4809 13.2856 11.5781 13.1461 11.7424C13.0067 11.9068 12.9288 12.1256 12.9287 12.3532C12.9286 12.5809 13.0063 12.7998 13.1456 12.9643C13.2849 13.1288 13.4751 13.2262 13.6764 13.2362H13.6772C13.8785 13.2264 14.0688 13.1292 14.2082 12.9648C14.3477 12.8005 14.4256 12.5817 14.4257 12.354C14.4258 12.1264 14.3481 11.9075 14.2088 11.743C14.0694 11.5785 13.8793 11.4811 13.6779 11.4711H13.6764H13.6772ZM12.8958 17.648C12.9045 17.8755 12.9905 18.0903 13.136 18.2479C13.2816 18.4054 13.4753 18.4933 13.6768 18.4935C13.8784 18.4936 14.0722 18.4058 14.2178 18.2484C14.3635 18.0911 14.4497 17.8763 14.4585 17.6489V14.7054C14.4499 14.478 14.3638 14.2631 14.2183 14.1056C14.0728 13.9481 13.8791 13.8601 13.6775 13.86C13.476 13.8599 13.2822 13.9476 13.1365 14.105C12.9909 14.2624 12.9047 14.4771 12.8958 14.7046V14.7062V17.648ZM10.5517 17.7455L11.7669 12.7453C11.8148 12.6329 11.8412 12.5104 11.8444 12.3858C11.8476 12.2611 11.8275 12.1371 11.7855 12.0217C11.7435 11.9064 11.6805 11.8023 11.6006 11.7163C11.5206 11.6303 11.4256 11.5642 11.3216 11.5223C11.2176 11.4805 11.1069 11.4638 10.9968 11.4734C10.8867 11.483 10.7797 11.5187 10.6826 11.578C10.5855 11.6374 10.5005 11.7192 10.4332 11.8181C10.366 11.917 10.3178 12.0307 10.292 12.152L10.2913 12.1578L9.77036 14.3146L9.24945 12.1578C9.19946 11.9682 9.09674 11.8018 8.95648 11.6833C8.81623 11.5647 8.6459 11.5004 8.47074 11.4997C8.29557 11.4991 8.12488 11.5621 7.98393 11.6796C7.84299 11.7971 7.73929 11.9627 7.68819 12.152L7.68672 12.1586L7.16581 14.3154L6.6449 12.1586C6.6173 12.0398 6.56814 11.9287 6.50054 11.8325C6.43293 11.7362 6.34835 11.6569 6.25216 11.5995C6.15597 11.5421 6.05027 11.5079 5.94177 11.4991C5.83327 11.4903 5.72434 11.5071 5.62187 11.5483C5.51941 11.5896 5.42566 11.6545 5.34656 11.7388C5.26747 11.8232 5.20475 11.9252 5.1624 12.0383C5.12005 12.1515 5.09899 12.2734 5.10054 12.3962C5.1021 12.5191 5.12624 12.6402 5.17144 12.752L5.16923 12.7462L6.38444 17.7464C6.41169 17.958 6.50539 18.1516 6.64847 18.2918C6.79155 18.4319 6.97446 18.5093 7.16384 18.5098C7.35323 18.5103 7.53646 18.4339 7.68012 18.2945C7.82379 18.1551 7.9183 17.9621 7.94643 17.7505L7.94717 17.7455L8.46808 15.6871L8.98899 17.7455C9.00449 17.9671 9.09325 18.1741 9.23764 18.3251C9.38203 18.4762 9.57147 18.5604 9.76829 18.5609C9.96511 18.5614 10.1549 18.4783 10.2999 18.328C10.4449 18.1777 10.5346 17.9712 10.551 17.7497V17.7464L10.5517 17.7455ZM23.8327 9.70603H18.3543C17.7354 9.70603 17.1418 9.98374 16.7041 10.4781C16.2664 10.9724 16.0205 11.6429 16.0205 12.342V12.3536V12.3528V17.663C16.0205 18.3287 15.7977 18.9698 15.3968 19.4577C14.9958 19.9456 14.4464 20.2443 13.8587 20.294L13.8513 20.2948H23.8475C24.6729 20.2948 25.4645 19.9245 26.0481 19.2652C26.6318 18.606 26.9597 17.7119 26.9597 16.7797V16.7638V16.7647V13.2195C26.9597 12.2872 26.6318 11.3931 26.0481 10.7339C25.4645 10.0747 24.6729 9.70436 23.8475 9.70436H23.8335H23.8342L23.8327 9.70603Z" fill="white"/>
</svg>
