<svg width="30" height="30" viewBox="0 0 30 30" fill="none" xmlns="http://www.w3.org/2000/svg">
<rect width="30" height="30" rx="5" fill="#515151"/>
<path d="M21 10.3243H22M5 14.6486L5.79 17.4422C5.91507 17.885 6.16834 18.2728 6.51254 18.5484C6.85674 18.8239 7.27369 18.9728 7.702 18.973H9M25 14.6486L24.21 17.4422C24.0849 17.885 23.8317 18.2728 23.4875 18.5484C23.1433 18.8239 22.7263 18.9728 22.298 18.973H21M12.5 18.4324C12.5 18.4324 12.5 26 9 26M17.5 18.4324C17.5 18.4324 17.5 26 21 26M15 18.4324V26M25 6.64865V14.6486H5V6.64865C5 6.47662 5.06321 6.31163 5.17574 6.18998C5.28826 6.06834 5.44087 6 5.6 6H24.4C24.5591 6 24.7117 6.06834 24.8243 6.18998C24.9368 6.31163 25 6.47662 25 6.64865V6.64865Z" stroke="white" stroke-width="1.5" stroke-linecap="round" stroke-linejoin="round"/>
</svg>
