<svg width="30" height="30" viewBox="0 0 30 30" fill="none" xmlns="http://www.w3.org/2000/svg">
<rect width="30" height="30" rx="5" fill="#515151"/>
<path d="M15 22C15 20.3333 14.4167 18.9167 13.25 17.75C12.0833 16.5833 10.6667 16 9 16C9 17.6667 9.58333 19.0833 10.75 20.25C11.9167 21.4167 13.3333 22 15 22ZM15 16.95C15.4333 16.95 15.8 16.8 16.1 16.5C16.4 16.2 16.55 15.8333 16.55 15.4V15.25C16.6833 15.35 16.821 15.425 16.963 15.475C17.1043 15.525 17.2667 15.55 17.45 15.55C17.8833 15.55 18.25 15.4 18.55 15.1C18.85 14.8 19 14.4333 19 14C19 13.6667 18.9207 13.375 18.762 13.125C18.604 12.875 18.3833 12.7 18.1 12.6C18.3833 12.5 18.604 12.325 18.762 12.075C18.9207 11.825 19 11.5333 19 11.2C19 10.7667 18.85 10.4 18.55 10.1C18.25 9.8 17.8833 9.65 17.45 9.65C17.2667 9.65 17.1043 9.675 16.963 9.725C16.821 9.775 16.6833 9.85 16.55 9.95V9.8C16.55 9.36667 16.4 9 16.1 8.7C15.8 8.4 15.4333 8.25 15 8.25C14.5667 8.25 14.2 8.4 13.9 8.7C13.6 9 13.45 9.36667 13.45 9.8V9.95C13.3167 9.85 13.1793 9.775 13.038 9.725C12.896 9.675 12.7333 9.65 12.55 9.65C12.1167 9.65 11.75 9.8 11.45 10.1C11.15 10.4 11 10.7667 11 11.2C11 11.5333 11.0793 11.825 11.238 12.075C11.396 12.325 11.6167 12.5 11.9 12.6C11.6167 12.7 11.396 12.875 11.238 13.125C11.0793 13.375 11 13.6667 11 14C11 14.4333 11.15 14.8 11.45 15.1C11.75 15.4 12.1167 15.55 12.55 15.55C12.7333 15.55 12.896 15.525 13.038 15.475C13.1793 15.425 13.3167 15.35 13.45 15.25V15.4C13.45 15.8333 13.6 16.2 13.9 16.5C14.2 16.8 14.5667 16.95 15 16.95ZM15 14.15C14.5667 14.15 14.2 14.004 13.9 13.712C13.6 13.4207 13.45 13.05 13.45 12.6C13.45 12.1667 13.6 11.8 13.9 11.5C14.2 11.2 14.5667 11.05 15 11.05C15.4333 11.05 15.8 11.2 16.1 11.5C16.4 11.8 16.55 12.1667 16.55 12.6C16.55 13.05 16.4 13.4207 16.1 13.712C15.8 14.004 15.4333 14.15 15 14.15ZM15 22C16.6667 22 18.0833 21.4167 19.25 20.25C20.4167 19.0833 21 17.6667 21 16C19.3333 16 17.9167 16.5833 16.75 17.75C15.5833 18.9167 15 20.3333 15 22ZM7 25C6.45 25 5.97933 24.8043 5.588 24.413C5.196 24.021 5 23.55 5 23V7C5 6.45 5.196 5.979 5.588 5.587C5.97933 5.19567 6.45 5 7 5H23C23.55 5 24.021 5.19567 24.413 5.587C24.8043 5.979 25 6.45 25 7V23C25 23.55 24.8043 24.021 24.413 24.413C24.021 24.8043 23.55 25 23 25H7Z" fill="white"/>
</svg>
