<svg width="30" height="30" viewBox="0 0 30 30" fill="none" xmlns="http://www.w3.org/2000/svg">
<rect width="30" height="30" rx="5" fill="#515151"/>
<path d="M6.11598 5L7.04381 6.57185L8.75518 5.60546L8.39776 5H6.11598ZM9.14181 6.26042L7.43044 7.22681L7.77412 7.80903L9.48549 6.84265L9.14181 6.26042ZM13.3093 6.42029C13.2259 6.4205 13.1425 6.42319 13.0591 6.42807C11.6536 6.51059 10.2069 7.30853 9.01641 7.9808C7.82588 8.65307 6.39612 9.4795 5.62027 10.6288C4.88348 11.7203 4.65433 13.0917 5.76891 15.1514L16.9894 8.81542C15.8021 6.96483 14.5599 6.41697 13.3093 6.42029H13.3093ZM17.3835 9.46618L6.14803 15.8107L6.4917 16.3929L17.7273 10.0483L17.3836 9.46618H17.3835ZM18.2163 10.6454L17.4459 11.0805L25 15.4067V14.5303L18.2163 10.6455V10.6454ZM15.7169 12.0568L15.0278 12.4459L25 22.687V21.5903L15.7169 12.0568ZM18.6147 12.7759L18.1273 13.363L22.7468 17.0313L23.2342 16.4442L18.6147 12.7759ZM13.2452 13.4525L12.5755 13.8308L16.1925 20.0548L16.8647 19.6811L13.2452 13.4525ZM12.0172 14.8911L11.3195 15.2172L16.1001 25H16.9573L12.0172 14.8911ZM16.1641 15.1397L15.5428 15.5899L22.6717 25H23.6341L16.1641 15.1397ZM9.20032 15.7367L8.50868 16.1272L11.0312 25H11.8338L9.20032 15.7367V15.7367ZM7.6565 16.6083L6.94501 17.0101L7.47839 19.8958L8.23932 19.7612L7.6565 16.6084V16.6083ZM11.5741 17.7741L10.8492 18.0374L13.4926 25H14.3174L11.5742 17.7742L11.5741 17.7741ZM17.6284 21.1382L16.9616 21.5213L19.0516 25H19.9485L17.6284 21.1382V21.1382ZM8.56569 21.6291L7.80058 21.7387L8.2895 25H9.07102L8.56573 21.6291L8.56569 21.6291Z" fill="white"/>
</svg>
