<svg width="22" height="20" viewBox="0 0 22 20" fill="none" xmlns="http://www.w3.org/2000/svg">
<path d="M4.125 15C4.36333 15 4.56023 14.9293 4.7157 14.788C4.8719 14.646 4.95 14.4667 4.95 14.25V13.5H17.05V14.25C17.05 14.4667 17.1277 14.646 17.2832 14.788C17.4394 14.9293 17.6367 15 17.875 15C18.1133 15 18.3106 14.9293 18.4668 14.788C18.6223 14.646 18.7 14.4667 18.7 14.25V11.15C18.7 10.8 18.6267 10.4707 18.48 10.162C18.3333 9.854 18.1317 9.58333 17.875 9.35V7C17.875 6.45 17.6598 5.979 17.2293 5.587C16.7981 5.19567 16.28 5 15.675 5H12.1C11.8983 5 11.7058 5.025 11.5225 5.075C11.3392 5.125 11.165 5.2 11 5.3C10.835 5.2 10.6608 5.125 10.4775 5.075C10.2942 5.025 10.1017 5 9.9 5H6.325C5.72 5 5.20227 5.19567 4.7718 5.587C4.3406 5.979 4.125 6.45 4.125 7V9.35C3.86833 9.58333 3.66667 9.854 3.52 10.162C3.37333 10.4707 3.3 10.8 3.3 11.15V14.25C3.3 14.4667 3.3781 14.646 3.5343 14.788C3.68977 14.9293 3.88667 15 4.125 15ZM11.825 8.5V6.5H16.225V8.5H11.825ZM5.775 8.5V6.5H10.175V8.5H5.775ZM4.95 12V11C4.95 10.7167 5.05523 10.479 5.2657 10.287C5.4769 10.0957 5.73833 10 6.05 10H15.95C16.2617 10 16.5227 10.0957 16.7332 10.287C16.9444 10.479 17.05 10.7167 17.05 11V12H4.95ZM2.2 20C1.595 20 1.07727 19.8043 0.6468 19.413C0.2156 19.021 0 18.55 0 18V2C0 1.45 0.2156 0.979 0.6468 0.587C1.07727 0.195667 1.595 0 2.2 0H19.8C20.405 0 20.9231 0.195667 21.3543 0.587C21.7848 0.979 22 1.45 22 2V18C22 18.55 21.7848 19.021 21.3543 19.413C20.9231 19.8043 20.405 20 19.8 20H2.2Z" fill="#3C5549"/>
</svg>
