<svg width="50" height="50" viewBox="0 0 50 50" fill="none" xmlns="http://www.w3.org/2000/svg">
<circle cx="25" cy="25" r="25" fill="#4992FF"/>
<path d="M17 31V21.5C17 20.3065 17.4741 19.1619 18.318 18.318C19.1619 17.4741 20.3065 17 21.5 17H28.5C29.0909 17 29.6761 17.1164 30.2221 17.3425C30.768 17.5687 31.2641 17.9002 31.682 18.318C32.0998 18.7359 32.4313 19.232 32.6575 19.7779C32.8836 20.3239 33 20.9091 33 21.5V28.5C33 29.0909 32.8836 29.6761 32.6575 30.2221C32.4313 30.768 32.0998 31.2641 31.682 31.682C31.2641 32.0998 30.768 32.4313 30.2221 32.6575C29.6761 32.8836 29.0909 33 28.5 33H19C18.4696 33 17.9609 32.7893 17.5858 32.4142C17.2107 32.0391 17 31.5304 17 31V31Z" stroke="white" stroke-width="2" stroke-linecap="round" stroke-linejoin="round"/>
<path d="M21 25H24.5C25.0304 25 25.5391 25.2107 25.9142 25.5858C26.2893 25.9609 26.5 26.4696 26.5 27C26.5 27.5304 26.2893 28.0391 25.9142 28.4142C25.5391 28.7893 25.0304 29 24.5 29H21V22C21 21.7348 21.1054 21.4804 21.2929 21.2929C21.4804 21.1054 21.7348 21 22 21H23.5C24.0304 21 24.5391 21.2107 24.9142 21.5858C25.2893 21.9609 25.5 22.4696 25.5 23C25.5 23.5304 25.2893 24.0391 24.9142 24.4142C24.5391 24.7893 24.0304 25 23.5 25H22M29 29H29.01" stroke="white" stroke-width="2" stroke-linecap="round" stroke-linejoin="round"/>
</svg>
