<svg width="30" height="30" viewBox="0 0 30 30" fill="none" xmlns="http://www.w3.org/2000/svg">
<rect width="30" height="30" rx="5" fill="#515151"/>
<path d="M20.97 15.0286L18.97 18.4986L21.5 21.6786L25 15.6186L20.97 15.0286ZM10 20.9986V18.2886C9.12 17.8986 8.5 17.0286 8.5 15.9986C8.5 15.4286 8.7 14.8986 9.03 14.4986L7.06 13.3486C6.05 12.7586 5.7 11.4686 6.29 10.4586L7.67 8.05864C7.95137 7.57365 8.41302 7.21952 8.95435 7.07341C9.49568 6.92731 10.0728 7.00108 10.56 7.27864L18.69 11.9986C19.64 12.5286 19.97 13.7486 19.42 14.7086L17.92 17.3086C17.37 18.2586 16.14 18.5886 15.19 18.0386L13.31 16.9586C13.06 17.5486 12.59 18.0286 12 18.2886V20.9986C12 22.0986 11.1 22.9986 10 22.9986H5V20.9986H10Z" fill="white"/>
</svg>
