<svg width="48" height="26" viewBox="0 0 48 26" fill="none" xmlns="http://www.w3.org/2000/svg">
<path d="M4.54054 0C5.22867 0 5.88861 0.273928 6.3752 0.761522C6.86178 1.24912 7.13514 1.91044 7.13514 2.6C7.13514 3.28956 6.86178 3.95088 6.3752 4.43848C5.88861 4.92607 5.22867 5.2 4.54054 5.2C3.85241 5.2 3.19247 4.92607 2.70589 4.43848C2.2193 3.95088 1.94595 3.28956 1.94595 2.6C1.94595 1.91044 2.2193 1.24912 2.70589 0.761522C3.19247 0.273928 3.85241 0 4.54054 0M2.59459 6.5H6.48649C7.17462 6.5 7.83456 6.77393 8.32114 7.26152C8.80772 7.74912 9.08108 8.41044 9.08108 9.1V16.25H7.13514V26H1.94595V16.25H0V9.1C0 8.41044 0.273358 7.74912 0.759939 7.26152C1.24652 6.77393 1.90647 6.5 2.59459 6.5M16.2162 0C16.9043 0 17.5643 0.273928 18.0509 0.761522C18.5375 1.24912 18.8108 1.91044 18.8108 2.6C18.8108 3.28956 18.5375 3.95088 18.0509 4.43848C17.5643 4.92607 16.9043 5.2 16.2162 5.2C15.5281 5.2 14.8681 4.92607 14.3816 4.43848C13.895 3.95088 13.6216 3.28956 13.6216 2.6C13.6216 1.91044 13.895 1.24912 14.3816 0.761522C14.8681 0.273928 15.5281 0 16.2162 0ZM14.2703 26V18.2H10.3784L13.7384 8.333C14.0627 7.267 15.0486 6.5 16.2162 6.5C17.3838 6.5 18.3697 7.267 18.6941 8.333L22.0541 18.2H18.1622V26H14.2703Z" fill="#515151"/>
<path d="M30.4865 0C31.1746 0 31.8345 0.273928 32.3211 0.761522C32.8077 1.24912 33.0811 1.91044 33.0811 2.6C33.0811 3.28956 32.8077 3.95088 32.3211 4.43848C31.8345 4.92607 31.1746 5.2 30.4865 5.2C29.7983 5.2 29.1384 4.92607 28.6518 4.43848C28.1652 3.95088 27.8919 3.28956 27.8919 2.6C27.8919 1.91044 28.1652 1.24912 28.6518 0.761522C29.1384 0.273928 29.7983 0 30.4865 0ZM28.5405 6.5H32.4324C33.1205 6.5 33.7805 6.77393 34.2671 7.26152C34.7536 7.74912 35.027 8.41044 35.027 9.1V16.25H33.0811V26H27.8919V16.25H25.9459V9.1C25.9459 8.41044 26.2193 7.74912 26.7059 7.26152C27.1924 6.77393 27.8524 6.5 28.5405 6.5ZM42.1621 0C42.8503 0 43.5102 0.273928 43.9968 0.761522C44.4834 1.24912 44.7567 1.91044 44.7567 2.6C44.7567 3.28956 44.4834 3.95088 43.9968 4.43848C43.5102 4.92607 42.8503 5.2 42.1621 5.2C41.474 5.2 40.8141 4.92607 40.3275 4.43848C39.8409 3.95088 39.5675 3.28956 39.5675 2.6C39.5675 1.91044 39.8409 1.24912 40.3275 0.761522C40.8141 0.273928 41.474 0 42.1621 0ZM40.2162 26V18.2H36.3243L39.6843 8.333C40.0086 7.267 40.9946 6.5 42.1621 6.5C43.3297 6.5 44.3157 7.267 44.64 8.333L48 18.2H44.1081V26H40.2162Z" fill="#515151"/>
</svg>
