<svg width="22" height="26" viewBox="0 0 22 26" fill="none" xmlns="http://www.w3.org/2000/svg">
<path d="M4.52941 0C5.21585 0 5.87418 0.273928 6.35957 0.761522C6.84496 1.24912 7.11765 1.91044 7.11765 2.6C7.11765 3.28956 6.84496 3.95088 6.35957 4.43848C5.87418 4.92607 5.21585 5.2 4.52941 5.2C3.84297 5.2 3.18464 4.92607 2.69925 4.43848C2.21386 3.95088 1.94118 3.28956 1.94118 2.6C1.94118 1.91044 2.21386 1.24912 2.69925 0.761522C3.18464 0.273928 3.84297 0 4.52941 0ZM2.58824 6.5H6.47059C7.15703 6.5 7.81536 6.77393 8.30075 7.26152C8.78614 7.74912 9.05882 8.41044 9.05882 9.1V16.25H7.11765V26H1.94118V16.25H0V9.1C0 8.41044 0.272688 7.74912 0.758076 7.26152C1.24346 6.77393 1.90179 6.5 2.58824 6.5ZM16.1765 0C16.8629 0 17.5212 0.273928 18.0066 0.761522C18.492 1.24912 18.7647 1.91044 18.7647 2.6C18.7647 3.28956 18.492 3.95088 18.0066 4.43848C17.5212 4.92607 16.8629 5.2 16.1765 5.2C15.49 5.2 14.8317 4.92607 14.3463 4.43848C13.8609 3.95088 13.5882 3.28956 13.5882 2.6C13.5882 1.91044 13.8609 1.24912 14.3463 0.761522C14.8317 0.273928 15.49 0 16.1765 0ZM14.2353 26V18.2H10.3529L13.7047 8.333C14.0282 7.267 15.0118 6.5 16.1765 6.5C17.3412 6.5 18.3247 7.267 18.6482 8.333L22 18.2H18.1176V26H14.2353Z" fill="#515151"/>
</svg>
