<svg width="32" height="26" viewBox="0 0 32 26" fill="none" xmlns="http://www.w3.org/2000/svg">
<path d="M7.24528 6.5H2.41509C1.08679 6.5 0 7.67 0 9.1V16.9H3.01887V26H6.64151V16.9H9.66038V9.1C9.66038 7.67 8.57359 6.5 7.24528 6.5Z" fill="#515151"/>
<path d="M4.83019 5.2C6.16401 5.2 7.24529 4.03594 7.24529 2.6C7.24529 1.16406 6.16401 0 4.83019 0C3.49637 0 2.4151 1.16406 2.4151 2.6C2.4151 4.03594 3.49637 5.2 4.83019 5.2Z" fill="#515151"/>
<path d="M17.5095 0C18.15 0 18.7643 0.273928 19.2172 0.761522C19.6701 1.24912 19.9246 1.91044 19.9246 2.6C19.9246 3.28956 19.6701 3.95088 19.2172 4.43848C18.7643 4.92607 18.15 5.2 17.5095 5.2C16.8689 5.2 16.2547 4.92607 15.8017 4.43848C15.3488 3.95088 15.0944 3.28956 15.0944 2.6C15.0944 1.91044 15.3488 1.24912 15.8017 0.761522C16.2547 0.273928 16.8689 0 17.5095 0M15.6981 26V18.2H12.0755L15.2151 8.32C15.5774 7.28 16.4227 6.5 17.5095 6.5C18.5963 6.5 19.5623 7.28 19.8038 8.32L22.9434 18.2H19.3208V26H15.6981ZM25.9623 13C25.9623 12.3104 26.2167 11.6491 26.6697 11.1615C27.1226 10.6739 27.7369 10.4 28.3774 10.4C29.0179 10.4 29.6322 10.6739 30.0851 11.1615C30.538 11.6491 30.7925 12.3104 30.7925 13C30.7925 13.6896 30.538 14.3509 30.0851 14.8385C29.6322 15.3261 29.0179 15.6 28.3774 15.6C27.7369 15.6 27.1226 15.3261 26.6697 14.8385C26.2167 14.3509 25.9623 13.6896 25.9623 13ZM24.7547 16.9H32V22.1H30.1887V26H26.5661V22.1H24.7547V16.9Z" fill="#515151"/>
</svg>
