<svg width="40" height="40" viewBox="0 0 40 40" fill="none" xmlns="http://www.w3.org/2000/svg">
<circle cx="20" cy="20" r="20" fill="#927B67"/>
<path d="M26.0052 12.2684C26.1654 12.2092 26.296 12.0877 26.3682 11.9306C26.4403 11.7735 26.4482 11.5937 26.39 11.4307C26.3318 11.2677 26.2123 11.1349 26.0579 11.0615C25.9034 10.9881 25.7266 10.9801 25.5663 11.0393L14.8572 14.9996V11.6538C14.8572 11.4804 14.7894 11.3141 14.6689 11.1915C14.5483 11.0689 14.3848 11 14.2143 11H12.9286C12.7581 11 12.5946 11.0689 12.474 11.1915C12.3535 11.3141 12.2857 11.4804 12.2857 11.6538V15.9516L11.4235 16.2697C11.2632 16.3289 11.1326 16.4504 11.0604 16.6076C10.9883 16.7647 10.9804 16.9445 11.0386 17.1075C11.0968 17.2705 11.2163 17.4033 11.3708 17.4767C11.5252 17.5501 11.7021 17.5581 11.8623 17.4989L26.0052 12.2684Z" fill="white"/>
<path fill-rule="evenodd" clip-rule="evenodd" d="M12.302 18.7278L25.1428 13.9785V16.9625L28.5765 18.2318C28.7368 18.291 28.8674 18.4125 28.9396 18.5696C29.0117 18.7267 29.0196 18.9065 28.9614 19.0695C28.9032 19.2325 28.7837 19.3653 28.6292 19.4387C28.4748 19.5121 28.2979 19.5201 28.1377 19.4609L27.7143 19.304V26.6921H28.3571C28.5276 26.6921 28.6911 26.761 28.8117 26.8836C28.9322 27.0062 29 27.1725 29 27.3459C29 27.5193 28.9322 27.6856 28.8117 27.8082C28.6911 27.9308 28.5276 27.9997 28.3571 27.9997H11.6429C11.4724 27.9997 11.3088 27.9308 11.1883 27.8082C11.0677 27.6856 11 27.5193 11 27.3459C11 27.1725 11.0677 27.0062 11.1883 26.8836C11.3088 26.761 11.4724 26.6921 11.6429 26.6921H12.2857V18.7339L12.302 18.7287V18.7278ZM25.1428 26.6912V18.3529L26.4285 18.828V26.6912H25.1428ZM17.4286 21.4607C17.2581 21.4607 17.0946 21.5296 16.974 21.6522C16.8534 21.7748 16.7857 21.9411 16.7857 22.1145V26.0374C16.7857 26.3983 17.0737 26.6912 17.4286 26.6912H20C20.1705 26.6912 20.334 26.6223 20.4545 26.4997C20.5751 26.3771 20.6428 26.2108 20.6428 26.0374V22.1145C20.6428 21.9411 20.5751 21.7748 20.4545 21.6522C20.334 21.5296 20.1705 21.4607 20 21.4607H17.4286Z" fill="white"/>
</svg>
