<svg width="30" height="24" viewBox="0 0 30 24" fill="none" xmlns="http://www.w3.org/2000/svg">
<path d="M14.9531 23.9531L14.4844 23.0156C15.4531 20.5469 16.5781 18 17.8594 15.375C19.1406 12.75 20.5 10.1719 21.9375 7.64062C23.375 5.10938 24.8281 2.71875 26.2969 0.46875H29.9062C28.5938 2.8125 27.2812 5.375 25.9688 8.15625C24.6875 10.9375 23.4844 13.7031 22.3594 16.4531C21.2656 19.1719 20.3438 21.6719 19.5938 23.9531H14.9531ZM0.46875 23.9531L0.046875 23.0156C1.01562 20.5469 2.125 18 3.375 15.375C4.65625 12.75 6 10.1719 7.40625 7.64062C8.84375 5.10938 10.3125 2.71875 11.8125 0.46875H15.4219C14.4531 2.25 13.4688 4.15625 12.4688 6.1875C11.5 8.1875 10.5469 10.2344 9.60938 12.3281C8.70312 14.3906 7.85938 16.4219 7.07812 18.4219C6.32812 20.4219 5.67188 22.2656 5.10938 23.9531H0.46875Z" fill="#CFCCC3"/>
</svg>
