<svg width="20" height="15" viewBox="0 0 20 15" fill="none" xmlns="http://www.w3.org/2000/svg">
<path d="M10.4545 1.875C10.4545 0.834375 11.2636 0 12.2727 0H15.4545C16.4545 0 17.2727 0.84375 17.2727 1.875V3.9C16.2182 4.28437 15.4545 5.31563 15.4545 6.53438V8.4375H10.4545V1.875ZM4.54545 6.525V8.4375H9.54545V1.875C9.54545 0.834375 8.73636 0 7.72727 0H4.54545C3.54545 0 2.72727 0.84375 2.72727 1.875V3.89062C3.78182 4.275 4.54545 5.31563 4.54545 6.525ZM17.8727 4.71562C16.9818 4.86562 16.3636 5.7375 16.3636 6.675V9.375H3.63636V6.5625C3.63636 6.06522 3.44481 5.58831 3.10383 5.23668C2.76286 4.88504 2.30039 4.6875 1.81818 4.6875C1.33597 4.6875 0.873508 4.88504 0.532533 5.23668C0.191558 5.58831 0 6.06522 0 6.5625V11.25C0 12.2813 0.818182 13.125 1.81818 13.125V15H3.63636V13.125H16.3636V15H18.1818V13.125C19.1818 13.125 20 12.2813 20 11.25V6.5625C20 5.42812 19.0091 4.51875 17.8727 4.71562V4.71562Z" fill="#927B67"/>
</svg>
