<svg width="177" height="24" viewBox="0 0 177 24" fill="none" xmlns="http://www.w3.org/2000/svg">
<path d="M4.78125 24L6.8125 15.1263L0 9.15789L9 8.36842L12.5 0L16 8.36842L25 9.15789L18.1875 15.1263L20.2188 24L12.5 19.2947L4.78125 24Z" fill="#D6B090" fill-opacity="1"/>
<path d="M42.7812 24L44.8125 15.1263L38 9.15789L47 8.36842L50.5 0L54 8.36842L63 9.15789L56.1875 15.1263L58.2188 24L50.5 19.2947L42.7812 24Z" fill="#D6B090" fill-opacity="1"/>
<path d="M80.7812 24L82.8125 15.1263L76 9.15789L85 8.36842L88.5 0L92 8.36842L101 9.15789L94.1875 15.1263L96.2188 24L88.5 19.2947L80.7812 24Z" fill="#D6B090" fill-opacity="1"/>
<path d="M118.781 24L120.812 15.1263L114 9.15789L123 8.36842L126.5 0L130 8.36842L139 9.15789L132.188 15.1263L134.219 24L126.5 19.2947L118.781 24Z" fill="#D6B090" fill-opacity="1"/>
<path d="M156.781 24L158.812 15.1263L152 9.15789L161 8.36842L164.5 0L168 8.36842L177 9.15789L170.188 15.1263L172.219 24L164.5 19.2947L156.781 24Z" fill="#D6B090" fill-opacity="1"/>
</svg>
