<svg width="50" height="50" viewBox="0 0 50 50" fill="none" xmlns="http://www.w3.org/2000/svg">
<circle cx="25" cy="25" r="25" fill="#4992FF"/>
<path d="M24.7959 26.9648C24.7959 27.5072 24.6592 28.0221 24.3857 28.5098C24.1123 28.9928 23.6862 29.3848 23.1074 29.6855C22.5332 29.9863 21.7904 30.1367 20.8789 30.1367C20.4232 30.1367 20.0221 30.1162 19.6758 30.0752C19.334 30.0342 19.015 29.9681 18.7188 29.877C18.4225 29.7812 18.1149 29.6582 17.7959 29.5078V27.1016C18.3382 27.375 18.8851 27.5846 19.4365 27.7305C19.988 27.8717 20.487 27.9424 20.9336 27.9424C21.2025 27.9424 21.4212 27.9105 21.5898 27.8467C21.763 27.7829 21.8906 27.6963 21.9727 27.5869C22.0547 27.473 22.0957 27.3431 22.0957 27.1973C22.0957 27.0241 22.0342 26.8783 21.9111 26.7598C21.7926 26.6367 21.6012 26.5091 21.3369 26.377C21.0726 26.2448 20.724 26.0807 20.291 25.8848C19.9219 25.7116 19.5869 25.5339 19.2861 25.3516C18.9899 25.1693 18.7347 24.9619 18.5205 24.7295C18.3109 24.4925 18.1491 24.2168 18.0352 23.9023C17.9212 23.5879 17.8643 23.2165 17.8643 22.7881C17.8643 22.1455 18.0215 21.6077 18.3359 21.1748C18.6549 20.7373 19.097 20.4092 19.6621 20.1904C20.2318 19.9717 20.888 19.8623 21.6309 19.8623C22.2826 19.8623 22.8682 19.9352 23.3877 20.0811C23.9118 20.2269 24.3812 20.3932 24.7959 20.5801L23.9688 22.665C23.5404 22.4691 23.1188 22.3141 22.7041 22.2002C22.2894 22.0817 21.9043 22.0225 21.5488 22.0225C21.3164 22.0225 21.125 22.0521 20.9746 22.1113C20.8288 22.166 20.7194 22.2412 20.6465 22.3369C20.5781 22.4326 20.5439 22.542 20.5439 22.665C20.5439 22.82 20.6032 22.959 20.7217 23.082C20.8447 23.2051 21.0475 23.3395 21.3301 23.4854C21.6172 23.6266 22.0068 23.8112 22.499 24.0391C22.9867 24.2578 23.4014 24.4948 23.7432 24.75C24.085 25.0007 24.3447 25.3037 24.5225 25.6592C24.7048 26.0101 24.7959 26.4453 24.7959 26.9648ZM33.4639 30H25.6777V28.332L30.0049 22.1865H25.7803V20.0059H33.3545V21.667L29.0273 27.8193H33.4639V30Z" fill="white"/>
</svg>
